<?xml version="1.0" encoding="utf-8"?>
<!-- Generator: Adobe Illustrator 13.0.0, SVG Export Plug-In . SVG Version: 6.00 Build 14948)  -->
<!DOCTYPE svg PUBLIC "-//W3C//DTD SVG 1.0//EN" "http://www.w3.org/TR/2001/REC-SVG-20010904/DTD/svg10.dtd">
<svg version="1.0" id="Layer_1" xmlns="http://www.w3.org/2000/svg" xmlns:xlink="http://www.w3.org/1999/xlink" x="0px" y="0px"
	 width="170px" height="198px" viewBox="0 0 170 198" enable-background="new 0 0 170 198" xml:space="preserve">
<g transform="translate(0.000000,198.000000) scale(0.100000,-0.100000)">
	<path fill="#CFD844" d="M2.998,1692.998c3.003-201.997,7.002-270,20-310.996C68.999,1232.998,67.998,1040,20,810.996
		C5,740,0,679.004,1.001,560.996V405l55,150c131.001,357.998,157.998,487.998,157.998,750c0,162.998-2.998,188.999-26.997,280
		c-15,55-43.003,132.998-62.002,173.999C78.999,1853.999,21.001,1950,8.999,1950C2.998,1950,0,1856.001,2.998,1692.998z"/>
	<path fill="#CFD844" d="M291.001,1836.001c101.001-205,135-348.999,126.001-535C407.998,1107.998,356.001,950.996,215,695
		C98.999,485,35,354.004,16.001,290.996c-10-35-16.001-91.992-16.001-155C0,30,6.001-10,22.002-10c5,0,5.996,5,2.998,10
		c-3.999,5.996,15,54.004,41.001,107.998C122.998,225.996,195,302.002,430,490c187.002,150,242.998,202.002,325,300
		c252.002,305,335.996,562.998,307.002,952.998c-7.002,89.004-15,172.002-17.998,185C1037.998,1950,1035,1950,880,1950H722.998
		l28.003-96.001C800,1691.001,813.999,1597.998,813.999,1440c0-180-16.001-255-82.998-395.996
		C657.002,890,595,807.998,397.002,600.996C122.998,317.002,68.999,242.002,30,99.004L8.999,25l5,60.996
		c10,120,66.001,234.004,217.002,445C468.999,862.998,562.998,1054.004,615,1312.002c32.002,160.996,12.998,380.996-47.998,562.998
		l-24.004,70l-153.999,2.998l-155,2.002L291.001,1836.001z"/>
	<path fill="#CFD844" d="M1214.004,1897.998c15-121.997,18.994-468.999,5.996-560.996C1185.996,1080,1112.998,925,945,755
		C827.002,635,776.001,597.998,530,455S215,264.004,150,192.998C95,134.004,23.999,17.002,33.999,2.002
		C42.002-10.996,97.002-4.004,175,19.004c92.002,27.998,233.999,27.998,436.001,0C696.001,7.002,792.002-5.996,825-10
		c42.002-5-5-7.998-152.002-9.004c-130.996,0-221.997,3.008-240,10C388.999,7.998,231.001,14.004,180,0
		c-25-7.002-73.999-14.004-108.999-15.996c-178.999-11.006,1.001-14.004,780-12.002C1320.996-27.002,1595-22.998,1460-20
		c-179.004,4.004-225.996,7.002-175,12.002c100,10,250,50,339.004,90.996L1700,119.004V265v147.002L1637.998,355
		C1510,239.004,1367.998,170.996,1155,124.004c-67.998-15-135.996-18.008-460-19.004c-365-0.996-382.998-0.996-445-22.998
		C213.999,70,161.001,47.002,131.001,30S75,2.002,72.002,4.004c-6.001,5.996,75,63.994,130,91.992
		c75,38.008,178.999,62.002,402.998,94.004c262.998,37.998,297.002,44.004,419.004,80.996c275,84.004,515,237.002,641.992,410
		L1700,727.998l-0.996,428.003c-1.006,286.001-4.004,411.001-10,373.999c-60-372.002-140-610-267.002-790
		c-90-127.002-206.006-222.002-377.002-307.002C940.996,380.996,890,364.004,615,290C291.001,202.998,197.998,162.002,98.999,57.998
		C72.002,30,50,12.002,50,19.004c0,6.992,37.002,50,82.002,95c73.999,72.998,96.997,88.994,207.998,142.998
		c68.999,33.994,186.001,85.996,260,117.002c369.004,153.994,647.998,382.998,774.004,635
		c102.998,204.995,162.998,469.995,172.998,768.994l5.996,172.002H1380h-172.998L1214.004,1897.998z"/>
</g>
</svg>
