<?xml version="1.0" encoding="UTF-8" standalone="no"?>
<!-- Created with Inkscape (http://www.inkscape.org/) -->

<svg
   xmlns:dc="http://purl.org/dc/elements/1.1/"
   xmlns:cc="http://creativecommons.org/ns#"
   xmlns:rdf="http://www.w3.org/1999/02/22-rdf-syntax-ns#"
   xmlns:svg="http://www.w3.org/2000/svg"
   xmlns="http://www.w3.org/2000/svg"
   xmlns:xlink="http://www.w3.org/1999/xlink"
   version="1.1"
   width="204"
   height="204"
   id="svg3348">
  <defs
     id="defs3350">
    <linearGradient
       id="linearGradient5316">
      <stop
         id="stop5318"
         style="stop-color:#6c4c1f;stop-opacity:1"
         offset="0" />
      <stop
         id="stop5320"
         style="stop-color:#ffe348;stop-opacity:1"
         offset="1" />
    </linearGradient>
    <linearGradient
       x1="375.92514"
       y1="357.36218"
       x2="182.89127"
       y2="159.1348"
       id="linearGradient3433"
       xlink:href="#linearGradient5316"
       gradientUnits="userSpaceOnUse"
       gradientTransform="translate(-175.99454,-156.23902)" />
  </defs>
  <metadata
     id="metadata3353">
    <rdf:RDF>
      <cc:Work
         rdf:about="">
        <dc:format>image/svg+xml</dc:format>
        <dc:type
           rdf:resource="http://purl.org/dc/dcmitype/StillImage" />
        <dc:title></dc:title>
      </cc:Work>
    </rdf:RDF>
  </metadata>
  <path
     d="m 105.42178,2.8956127 c 40.58141,-2.3e-4 10.02249,1.84895 65.25188,4.8375 17.16779,2.9892503 30.43116,18.5335303 30.43116,37.2735903 0,4.5616 -1.84895,122.695917 -4.83831,125.685277 -1.49467,15.67312 -14.68887,28.29711 -30.84362,29.13302 -1.97631,0.83591 -118.153716,1.29815 -120.434516,1.29815 -18.74005,0 -34.28422,-13.26337 -37.2735699,-30.43117 -2.98936,-2.98936 -4.83831,-121.123677 -4.83831,-125.685277 0,-16.42256 14.8145399,-34.28342 30.4201799,-37.2727803 39.5324,-2.98936 65.24602,-4.83831 72.125106,-4.83831 0,0 0,0 0,0"
     id="path3931"
     style="fill:url(#linearGradient3433);fill-opacity:1;stroke:#717171;stroke-width:1.77165353;stroke-miterlimit:4;stroke-opacity:1" />
  <path
     d="m 42.899194,160.08138 c 1.36121,0.11431 8.23489,1.06648 18.21117,2.5637 10.97011,3.18752 27.75389,4.38767 42.073016,4.40023 7.95619,0.0109 16.00329,-0.0361 23.43265,-0.79092 7.42595,-0.75335 13.62957,-2.70074 18.77052,-4.81762 10.05013,-0.78523 17.34532,1.17485 16.57603,2.25426 -1.20711,2.06292 -2.59798,14.81269 -4.55923,15.54626 -1.82258,0.68171 -9.69947,1.34984 -21.19305,1.09512 -12.47035,-0.3585 -27.929,-1.61643 -42.759666,-4.00929 -13.09493,-0.85608 -26.17579,-1.2658 -36.11299,-2.37023 -9.53278,-0.88058 -15.27819,-2.35192 -14.43845,-2.56199 0,0 0,-11.30952 0,-11.30952"
     id="path4077"
     style="fill:#ffffff;fill-opacity:1;stroke:none" />
  <path
     d="m 132.02199,49.468523 c 0.16907,0.0487 1.43606,0.11909 3.25524,0.18476 1.85156,0.1261 4.252,0.26015 6.63427,0.42984 2.36279,0.1416 4.72683,0.28347 6.51437,0.46224 1.81569,0.20759 3.06217,0.436 3.19514,0.67425 1.6924,0.16941 3.20006,1.00184 4.31694,2.22821 1.11549,1.23851 1.8467,2.86797 1.91307,4.6648 0.0539,0.17585 0.0279,1.55121 -0.14487,3.24255 -0.18147,1.67726 -0.30442,3.6872 -0.40565,5.73094 -0.26338,1.82412 -0.4935,3.67482 -0.84545,5.03645 -0.19693,1.49034 -0.36287,2.43927 -0.55173,2.34007 -0.21395,1.47551 -1.03051,2.85684 -2.31173,3.85241 -1.21342,1.00859 -2.72358,1.68793 -4.49243,1.66156 -0.20275,-0.0139 -1.43675,0.0756 -3.30442,0.13299 -1.80644,0.088 -4.18282,0.078 -6.58254,0.17892 -2.39156,0.0892 -4.69511,0.15527 -6.5219,0.24295 -1.88648,0.174 -3.22166,0.348 -3.45424,0.522 -1.73262,0.0873 -3.40335,-0.62911 -4.44113,-1.89946 -1.04525,-1.24987 -1.55158,-2.83196 -1.44581,-4.56246 0.19246,-0.25453 0.4026,-1.58788 0.6157,-3.46756 0.12523,-1.79891 0.27881,-4.10115 0.40173,-6.456 0.14923,-2.37609 0.3216,-4.71328 0.49625,-6.49084 0.1308,-1.76398 0.27317,-2.98982 0.4377,-2.97746 0.2733,-1.56182 1.18998,-3.08561 2.50433,-4.08271 1.08822,-1.03247 2.57466,-1.66005 4.21716,-1.64845 0,0 0,0 0,0"
     id="path4269"
     style="fill:#ffffff;fill-opacity:1;stroke:none" />
  <path
     d="m 53.971534,49.613923 c 0.27277,-0.0445 1.43,-0.012 3.34032,0.0254 1.81841,-0.0124 4.16597,0.11088 6.50196,0.22096 2.37984,0.12367 4.75741,0.25568 6.56052,0.42658 1.77681,0.14966 3.03299,0.24671 3.15824,0.39173 1.80931,0.22578 3.46009,1.09907 4.69414,2.39518 1.14735,1.17586 1.92608,2.75795 1.92241,4.56246 0.004,0.22877 -0.22628,1.40521 -0.36266,2.97184 -0.23259,1.47989 -0.46517,3.51108 -0.69775,5.54227 -0.1729,2.11751 -0.27127,4.25661 -0.45763,5.82132 -0.19454,1.55299 -0.36572,2.66562 -0.51827,2.57756 -0.21379,1.53883 -0.98771,2.89001 -2.23203,3.94548 -1.21422,1.06795 -2.72438,1.67368 -4.49243,1.70666 -0.23965,0.046 -1.51628,0.10533 -3.38412,0.22606 -1.84274,0.0992 -4.21388,0.25286 -6.61601,0.41641 -2.55714,0.29227 -4.99244,0.64676 -6.90972,1.02782 -1.75512,0.16145 -2.98067,0.35671 -3.16214,0.33334 -1.76898,-0.0375 -3.23562,-0.95274 -4.22332,-2.17018 -0.97522,-1.24218 -1.52905,-2.87164 -1.45517,-4.6648 0.0753,-0.18479 0.14232,-1.47728 0.23849,-3.30058 0.13296,-1.89215 0.27685,-4.32574 0.43866,-6.73853 0.13364,-2.38395 0.29249,-4.73101 0.45009,-6.5265 0.17708,-1.82359 0.37233,-3.06023 0.57,-3.18633 0.16528,-1.66191 0.97221,-3.17298 2.18286,-4.26322 1.08785,-1.05319 2.81069,-1.73177 4.45356,-1.74089 0,0 0,0 0,0"
     id="path4436"
     style="fill:#ffffff;fill-opacity:1;stroke:none" />
</svg>
