<?xml version="1.0" encoding="UTF-8" standalone="no"?>
<!-- Created with Inkscape (http://www.inkscape.org/) -->

<svg
   xmlns:dc="http://purl.org/dc/elements/1.1/"
   xmlns:cc="http://creativecommons.org/ns#"
   xmlns:rdf="http://www.w3.org/1999/02/22-rdf-syntax-ns#"
   xmlns:svg="http://www.w3.org/2000/svg"
   xmlns="http://www.w3.org/2000/svg"
   xmlns:xlink="http://www.w3.org/1999/xlink"
   version="1.1"
   width="204"
   height="204"
   id="svg3348">
  <defs
     id="defs3350">
    <linearGradient
       id="linearGradient5298">
      <stop
         id="stop5300"
         style="stop-color:#8b9203;stop-opacity:1"
         offset="0" />
      <stop
         id="stop5302"
         style="stop-color:#f8ff74;stop-opacity:1"
         offset="1" />
    </linearGradient>
    <linearGradient
       x1="886.56232"
       y1="357.36218"
       x2="695.14954"
       y2="159.1348"
       id="linearGradient4360"
       xlink:href="#linearGradient5298"
       gradientUnits="userSpaceOnUse"
       gradientTransform="translate(-686.89957,-156.25755)" />
  </defs>
  <metadata
     id="metadata3353">
    <rdf:RDF>
      <cc:Work
         rdf:about="">
        <dc:format>image/svg+xml</dc:format>
        <dc:type
           rdf:resource="http://purl.org/dc/dcmitype/StillImage" />
        <dc:title></dc:title>
      </cc:Work>
    </rdf:RDF>
  </metadata>
  <path
     d="m 103.35688,2.8766052 c 32.65436,-9e-5 35.29792,7.3958198 68.15136,19.3529198 17.6288,11.95738 29.59038,33.04222 29.59038,56.96002 0,18.24641 -7.39582,80.367265 -19.35324,92.324695 -5.97871,11.65009 -17.6636,21.05417 -31.24021,24.3978 -7.90524,3.34363 -62.198452,5.19259 -71.321662,5.19259 -23.91778,0 -45.00256,-11.96159 -56.95998,-29.59039 C 10.266108,159.55681 2.8702978,97.435955 2.8702978,79.189545 c 0,-22.9908 12.5820502,-45.00227 29.5859802,-56.9597 26.57463,-11.95742 51.7272,-19.3532398 70.900602,-19.3532398 0,0 0,0 0,0"
     id="path3937"
     style="fill:url(#linearGradient4360);fill-opacity:1;stroke:#717171;stroke-width:1.77165353;stroke-miterlimit:4;stroke-opacity:1" />
  <path
     d="m 40.261458,137.65186 c 5.44486,0.45726 11.10919,4.26592 18.26878,10.25482 11.13493,12.75006 34.60932,17.55068 48.225122,17.60093 9.9944,0.0434 20.35246,-0.14443 29.60392,-3.16371 9.23786,-3.0134 14.95079,-10.80296 19.14179,-19.27047 7.45499,-3.14093 14.80539,4.69941 11.72825,9.01703 -4.82846,8.25169 -10.39193,18.53649 -18.23693,21.47078 -7.29033,2.72681 -16.96753,5.39935 -30.19632,4.38045 -17.13587,-1.43401 -35.309732,-6.46572 -50.971722,-16.03715 -8.71899,-3.42433 -17.38171,-5.06321 -24.38497,-9.48093 -5.3856,-3.5223 -6.53686,-9.40766 -3.17792,-10.24794 0,0 0,-4.52381 0,-4.52381"
     id="path4083"
     style="fill:#ffffff;fill-opacity:1;stroke:none" />
  <path
     d="m 136.73601,54.537495 c 0.67626,0.19462 1.7749,0.47634 3.09759,0.73903 1.45222,0.5044 3.1153,1.04059 4.70571,1.71938 1.51248,0.5664 3.02995,1.13386 4.22611,1.84894 1.30876,0.83038 2.32533,1.74399 2.85719,2.69701 1.02316,0.67764 1.86749,1.69425 2.58532,2.85001 0.71224,1.20435 1.32398,2.53588 1.58945,3.97674 0.2156,0.70341 0.11153,2.23549 -0.57947,3.04686 -0.72587,0.75504 -1.21767,0.85608 -1.6226,1.09238 -1.05353,-0.6422 -1.974,-1.17808 -3.3818,-1.68559 -0.78773,0.007 -1.45147,-0.16624 -2.20693,-0.56304 -0.8558,0.15557 -1.80895,0.4946 -3.18412,0.72716 -1.10396,0.28465 -1.95829,0.68891 -3.28725,0.58342 -0.811,-0.0555 -1.77763,0.30232 -3.29432,0.53196 -1.27176,0.35221 -2.83857,0.3121 -4.49878,0.71569 -1.62754,0.35673 -2.90308,0.62109 -4.25624,0.97181 -1.59189,0.69599 -2.96326,1.39199 -3.8936,2.088 -1.18402,0.34904 -2.68061,-0.20335 -3.08205,-1.53506 -0.4313,-1.24975 -0.14351,-2.39179 0.27956,-3.56735 0.76986,-1.01811 1.6104,-2.3822 2.4628,-3.94688 0.50093,-1.24164 1.11526,-2.5119 1.60693,-3.99263 0.59693,-1.56569 1.2864,-2.97578 1.985,-4.13201 0.5232,-1.10188 1.09267,-2.03592 1.7508,-1.98646 1.0932,-0.50086 2.44681,-1.40968 3.95451,-1.64838 0.60317,-0.38017 1.36263,-0.57741 2.18619,-0.53099 0,0 0,0 0,0"
     id="path4275"
     style="fill:#ffffff;fill-opacity:1;stroke:none" />
  <path
     d="m 58.791228,54.586085 c 1.09107,-0.17794 1.75064,-0.048 3.43793,0.10143 1.31962,-0.0495 2.77117,0.44354 4.17644,0.88386 1.58068,0.49467 3.15229,1.02269 4.41071,1.70631 1.15323,0.59864 2.2086,0.98684 2.7096,1.56691 1.49082,0.90313 2.90761,2.08319 4.09412,3.51793 0.8397,0.9537 1.64151,2.09575 1.62684,3.56735 0.0153,0.91508 -0.90513,1.6515 -1.45067,1.96401 -0.93033,-0.0345 -1.86066,0.15163 -2.791,0.33771 -0.6916,0.53136 -1.08506,1.14907 -1.83053,1.4539 -0.77813,0.25797 -1.46287,0.73912 -2.07307,0.3869 -0.85513,0.40886 -1.63774,0.62727 -2.86531,1.09943 -1.10717,0.52213 -1.96149,0.63192 -3.28725,0.76387 -0.9586,0.18407 -2.09577,0.42131 -3.61313,0.90423 -1.41695,0.3968 -2.96283,1.01144 -4.63264,1.66563 -2.28988,1.16907 -4.09242,2.58703 -5.80751,4.1113 -1.06649,0.64578 -1.99933,1.42681 -2.72519,1.33333 -1.3295,-0.14981 -2.00975,-1.49787 -2.21086,-2.61791 -0.15116,-1.219 -0.0534,-2.55053 0.24216,-3.97674 0.3012,-0.73913 0.56927,-1.93977 0.95393,-3.27896 0.53187,-1.61457 1.1074,-3.41026 1.75467,-5.12272 0.53453,-1.59716 1.16993,-3.04669 1.80033,-4.27465 0.70834,-1.34035 1.48934,-2.31757 2.28,-2.82197 0.66114,-0.90119 1.57575,-1.75917 2.66865,-2.37042 0.6017,-0.46304 2.30676,-0.86427 3.13178,-0.90073 0,0 0,0 0,0"
     id="path4442"
     style="fill:#ffffff;fill-opacity:1;stroke:none" />
</svg>
