<?xml version="1.0" encoding="UTF-8" standalone="no"?>
<!-- Created with Inkscape (http://www.inkscape.org/) -->

<svg
   xmlns:dc="http://purl.org/dc/elements/1.1/"
   xmlns:cc="http://creativecommons.org/ns#"
   xmlns:rdf="http://www.w3.org/1999/02/22-rdf-syntax-ns#"
   xmlns:svg="http://www.w3.org/2000/svg"
   xmlns="http://www.w3.org/2000/svg"
   xmlns:xlink="http://www.w3.org/1999/xlink"
   xmlns:sodipodi="http://sodipodi.sourceforge.net/DTD/sodipodi-0.dtd"
   xmlns:inkscape="http://www.inkscape.org/namespaces/inkscape"
   version="1.1"
   width="204"
   height="204"
   id="svg3348"
   inkscape:version="0.48.0 r9654"
   sodipodi:docname="smile03.svg">
  <sodipodi:namedview
     pagecolor="#ffffff"
     bordercolor="#666666"
     borderopacity="1"
     objecttolerance="10"
     gridtolerance="10"
     guidetolerance="10"
     inkscape:pageopacity="0"
     inkscape:pageshadow="2"
     inkscape:window-width="1440"
     inkscape:window-height="836"
     id="namedview4254"
     showgrid="false"
     fit-margin-top="2"
     fit-margin-bottom="2"
     fit-margin-right="2"
     fit-margin-left="2"
     inkscape:zoom="1.2598036"
     inkscape:cx="101.99597"
     inkscape:cy="101.9998"
     inkscape:window-x="-4"
     inkscape:window-y="-4"
     inkscape:window-maximized="1"
     inkscape:current-layer="svg3348" />
  <defs
     id="defs3350">
    <linearGradient
       id="linearGradient5304">
      <stop
         id="stop5306"
         offset="0"
         style="stop-color:#867903;stop-opacity:1;" />
      <stop
         id="stop5308"
         offset="1"
         style="stop-color:#fffe6f;stop-opacity:1;" />
    </linearGradient>
    <linearGradient
       gradientTransform="translate(-516.58845,-156.24805)"
       y2="159.1348"
       x2="513.58966"
       y1="357.36218"
       x1="714.72888"
       gradientUnits="userSpaceOnUse"
       id="linearGradient4317"
       xlink:href="#linearGradient5304"
       inkscape:collect="always" />
  </defs>
  <metadata
     id="metadata3353">
    <rdf:RDF>
      <cc:Work
         rdf:about="">
        <dc:format>image/svg+xml</dc:format>
        <dc:type
           rdf:resource="http://purl.org/dc/dcmitype/StillImage" />
        <dc:title></dc:title>
      </cc:Work>
    </rdf:RDF>
  </metadata>
  <path
     inkscape:connector-curvature="0"
     style="fill:url(#linearGradient4317);fill-opacity:1;stroke:#717171;stroke-width:1.77165353;stroke-miterlimit:4;stroke-opacity:1"
     d="m 104.05463,2.8862649 c 35.29671,-1.4e-4 26.87277,5.5468601 67.18486,14.5144501 17.47513,8.968 29.87064,28.20599 29.87064,50.39787 0,13.68481 -5.54686,94.476825 -14.51493,103.444895 -4.48403,12.9911 -16.67202,23.46848 -31.10801,25.97621 -5.92893,2.50772 -80.8502,3.89444 -87.69261,3.89444 -22.19187,0 -41.42978,-12.39552 -50.39784,-29.87065 C 8.42868,162.27541 2.88181,81.483395 2.88181,67.798585 c 0,-20.80138 13.32622,-41.42932 29.86405,-50.39739 30.89389,-8.96807 56.23347,-14.5149301 71.30877,-14.5149301 0,0 0,0 0,0"
     id="path3935" />
  <path
     inkscape:connector-curvature="0"
     id="path4081"
     d="m 41.15015,145.1317 c 4.08365,0.34294 10.1511,3.19943 18.24959,7.6911 11.07998,9.56255 32.32417,13.16301 46.17441,13.2007 9.31499,0.0326 18.90273,-0.10832 27.54683,-2.37278 8.63389,-2.26005 14.51038,-8.10222 19.01803,-14.45285 8.32004,-2.3557 15.65203,3.52456 13.34418,6.76277 -3.62135,6.18877 -7.79395,17.29522 -13.6777,19.49594 -5.46775,2.04511 -14.54484,4.04952 -27.19523,3.28534 -15.58069,-1.07551 -32.84948,-4.84929 -48.23436,-12.02786 -10.17764,-2.56825 -20.31308,-3.7974 -28.29431,-7.1107 -6.76799,-2.64172 -9.45064,-7.05575 -6.93144,-7.68595 0,0 0,-6.78571 0,-6.78571"
     style="fill:#ffffff;fill-opacity:1;stroke:none" />
  <path
     id="path4273"
     d="m 135.17411,52.851155 c 0.5072,0.14597 1.66196,0.35726 3.15015,0.55428 1.58533,0.3783 3.4942,0.78044 5.34856,1.28953 1.79591,0.4248 3.59558,0.8504 4.98886,1.38671 1.47774,0.62278 2.57094,1.30799 2.96984,2.02275 1.24625,0.50823 2.31168,1.46345 3.16253,2.64275 0.84665,1.21574 1.49822,2.64658 1.69732,4.20609 0.1617,0.52756 0.0836,2.0074 -0.4346,3.11209 -0.5444,1.06245 -0.91325,1.79979 -1.21695,2.63857 -0.79015,0.17991 -1.4805,0.43955 -2.53635,0.55509 -0.5908,0.50169 -1.0886,0.70226 -1.6552,0.40466 -0.64185,0.59555 -1.54947,1.28202 -2.89332,1.76891 -1.14045,0.52597 -2.21339,1.02192 -3.68898,0.9428 -0.60825,-0.0416 -1.664,0.22674 -3.29769,0.39897 -1.44998,0.26416 -3.28665,0.23407 -5.19336,0.53677 -1.88221,0.26754 -3.50043,0.46581 -5.01146,0.72885 -1.69009,0.522 -3.04939,1.044 -3.74715,1.566 -1.36689,0.26179 -2.92152,-0.34526 -3.53507,-1.65652 -0.63595,-1.24979 -0.61287,-2.53852 -0.29557,-3.89906 0.5774,-0.76358 1.2078,-2.11742 1.8471,-3.7871 0.3757,-1.42739 0.83645,-3.04165 1.2052,-4.81375 0.4477,-1.83583 0.9648,-3.55495 1.48875,-4.91829 0.3924,-1.32258 0.8195,-2.35389 1.3131,-2.31679 0.8199,-0.85452 2.02787,-1.96833 3.47112,-2.45983 0.76485,-0.5976 1.76663,-0.93829 2.86317,-0.90348 0,0 0,0 0,0"
     style="fill:#ffffff;fill-opacity:1;stroke:none"
     inkscape:connector-curvature="0" />
  <path
     inkscape:connector-curvature="0"
     style="fill:#ffffff;fill-opacity:1;stroke:none"
     d="m 57.19412,52.932015 c 0.8183,-0.13345 1.64376,-0.036 3.40539,0.0761 1.48589,-0.0371 3.2361,0.33265 4.95161,0.66289 1.84707,0.37101 3.68733,0.76702 5.12732,1.27973 1.36108,0.44899 2.48339,0.74013 2.85914,1.17519 1.59699,0.67735 3.09178,1.75515 4.29413,3.14368 0.94225,1.02775 1.73636,2.31648 1.72537,3.89905 0.0115,0.68631 -0.67886,1.56941 -1.088,2.29996 -0.69775,0.47033 -1.39551,1.27144 -2.09325,2.07256 -0.51871,1.06007 -0.8138,2.18492 -1.37291,2.90971 -0.58359,0.68964 -1.09714,1.38128 -1.5548,1.11712 -0.64135,0.78551 -1.42106,1.38151 -2.65421,2.04811 -1.14285,0.70407 -2.21579,0.97917 -3.68898,1.07813 -0.71895,0.13806 -1.90261,0.31598 -3.53679,0.67817 -1.55889,0.2976 -3.37985,0.75858 -5.29377,1.24923 -2.37896,0.8768 -4.39242,1.94027 -6.17491,3.08347 -1.29603,0.48434 -2.32644,1.07011 -2.87084,1 -1.47599,-0.11235 -2.41838,-1.31616 -2.88168,-2.46866 -0.42585,-1.22673 -0.54527,-2.65757 -0.32362,-4.2061 0.2259,-0.55435 0.42695,-1.7856 0.71545,-3.28617 0.39891,-1.70709 0.83056,-3.71542 1.31601,-5.66132 0.40089,-1.85942 0.87744,-3.60813 1.35024,-5.02526 0.53125,-1.50143 1.117,-2.56513 1.71001,-2.94343 0.49585,-1.15476 1.37456,-2.23044 2.50671,-3.00135 0.76375,-0.65975 2.47474,-1.15344 3.57238,-1.18079 0,0 0,0 0,0"
     id="path4440" />
</svg>
