<?xml version="1.0" encoding="UTF-8" standalone="no"?>
<!-- Created with Inkscape (http://www.inkscape.org/) -->

<svg
   xmlns:dc="http://purl.org/dc/elements/1.1/"
   xmlns:cc="http://creativecommons.org/ns#"
   xmlns:rdf="http://www.w3.org/1999/02/22-rdf-syntax-ns#"
   xmlns:svg="http://www.w3.org/2000/svg"
   xmlns="http://www.w3.org/2000/svg"
   xmlns:xlink="http://www.w3.org/1999/xlink"
   version="1.1"
   width="204"
   height="204"
   id="svg3348">
  <defs
     id="defs3350">
    <linearGradient
       id="linearGradient5292">
      <stop
         id="stop5294"
         style="stop-color:#6ba003;stop-opacity:1"
         offset="0" />
      <stop
         id="stop5296"
         style="stop-color:#e2ffb0;stop-opacity:1"
         offset="1" />
    </linearGradient>
    <linearGradient
       x1="1058.559"
       y1="357.36218"
       x2="857.5462"
       y2="159.1348"
       id="linearGradient4403"
       xlink:href="#linearGradient5292"
       gradientUnits="userSpaceOnUse"
       gradientTransform="translate(-857.18045,-156.24495)" />
  </defs>
  <metadata
     id="metadata3353">
    <rdf:RDF>
      <cc:Work
         rdf:about="">
        <dc:format>image/svg+xml</dc:format>
        <dc:type
           rdf:resource="http://purl.org/dc/dcmitype/StillImage" />
        <dc:title></dc:title>
      </cc:Work>
    </rdf:RDF>
  </metadata>
  <path
     d="m 102.68938,2.8890424 c 30.012,-5e-5 43.72307,9.2447796 69.11787,24.1913996 17.7824,14.94676 29.3101,37.87845 29.3101,63.52216 0,22.808018 -9.2448,66.257718 -24.1916,81.204498 -7.4733,10.30908 -18.6551,18.63985 -31.3724,22.81939 -9.88151,4.17955 -43.54664,6.49074 -54.950675,6.49074 -25.64369,0 -48.57534,-11.52766 -63.52211,-29.31013 C 12.133795,156.86032 2.8890251,113.41062 2.8890251,90.602602 c 0,-25.18021 11.8378899,-48.57521 29.3079099,-63.52199 22.25538,-14.94679 47.22093,-24.1915696 70.492445,-24.1915696 0,0 0,0 0,0"
     id="path3939"
     style="fill:url(#linearGradient4403);fill-opacity:1;stroke:#717171;stroke-width:1.77165353;stroke-miterlimit:4;stroke-opacity:1" />
  <path
     d="m 39.403005,130.19413 c 6.80608,0.57158 12.0673,5.3324 18.28799,12.81852 11.18986,15.93757 36.89446,21.93835 50.275825,22.00116 10.67379,0.0543 21.80217,-0.18054 31.66101,-3.95464 9.84182,-3.76675 15.39122,-13.50369 19.26552,-24.08808 6.59,-3.92617 13.9588,5.87427 10.1123,11.27128 -6.0355,10.31462 -12.9899,19.77776 -22.7961,23.44563 -9.11294,3.4085 -19.39023,6.74919 -33.19743,5.47555 -18.691045,-1.79251 -37.769975,-8.08215 -53.709065,-20.04643 -7.26035,-4.28041 -14.45036,-6.32901 -20.47564,-11.85116 -4.0032,-4.40287 -3.62308,-11.75958 0.57559,-12.80992 0,0 0,-2.26191 0,-2.26191"
     id="path4085"
     style="fill:#ffffff;fill-opacity:1;stroke:none" />
  <path
     d="m 138.32814,56.245932 c 0.84533,0.24327 1.88785,0.59542 3.04505,0.92379 1.31911,0.6305 2.73636,1.30073 4.06286,2.14922 1.229,0.708 2.4643,1.41733 3.4633,2.31118 1.1398,1.03797 2.0798,2.17999 2.7446,3.37126 0.8001,0.84705 1.4233,1.92505 2.0081,3.05728 0.5778,1.19297 1.1497,2.42519 1.4816,3.74739 0.2695,0.87926 0.1394,2.46359 -0.7244,2.98162 -0.9073,0.44764 -1.522,-0.0876 -2.0282,-0.4538 -1.3169,-1.4643 -2.4675,-2.79572 -4.2273,-3.92627 -0.9846,-0.48696 -1.8143,-1.03475 -2.7586,-1.53075 -1.0698,-0.2844 -2.0684,-0.29281 -3.47493,-0.31459 -1.06749,0.0434 -1.7032,0.35591 -2.88553,0.22405 -1.01375,-0.0694 -1.89127,0.3779 -3.29096,0.66494 -1.09353,0.44027 -2.39049,0.39013 -3.80419,0.89462 -1.37287,0.44591 -2.30574,0.77636 -3.50102,1.21476 -1.4937,0.86999 -2.87713,1.73999 -4.04005,2.61 -1.00116,0.43631 -2.43971,-0.0614 -2.62902,-1.41359 -0.22665,-1.24971 0.32584,-2.24507 0.85467,-3.23565 0.96234,-1.27264 2.013,-2.64697 3.0785,-4.10666 0.62617,-1.05587 1.39409,-1.98215 2.00867,-3.17149 0.74617,-1.29557 1.608,-2.39662 2.48125,-3.34574 0.654,-0.88118 1.36583,-1.71795 2.1885,-1.65612 1.3665,-0.14721 2.86576,-0.85105 4.43791,-0.83695 0.44148,-0.16273 0.95861,-0.21653 1.50919,-0.1585 0,0 0,0 0,0"
     id="path4277"
     style="fill:#ffffff;fill-opacity:1;stroke:none" />
  <path
     d="m 60.418595,56.262252 c 1.36383,-0.22242 1.85752,-0.06 3.47046,0.12679 1.15336,-0.0618 2.30623,0.55442 3.40127,1.10482 1.31429,0.61835 2.61724,1.27836 3.69411,2.13289 0.94536,0.74831 1.93379,1.23355 2.56004,1.95864 1.38467,1.12891 2.72346,2.41123 3.89411,3.89218 0.73715,0.87965 1.54666,1.87501 1.52832,3.23565 0.0192,1.14385 -1.13141,1.7336 -1.81333,1.62807 -1.16292,-0.53923 -2.32583,-0.9682 -3.48875,-1.39715 -0.8645,0.003 -1.35633,0.11323 -2.28816,-0.002 -0.97267,-0.17372 -1.82859,0.0969 -2.59134,-0.34332 -1.06891,0.0322 -1.85442,-0.12699 -3.0764,0.15075 -1.07149,0.34017 -1.7072,0.28465 -2.88553,0.4496 -1.19825,0.23009 -2.28894,0.52663 -3.68946,1.13028 -1.27503,0.496 -2.54582,1.2643 -3.97153,2.08204 -2.20078,1.46133 -3.7924,3.23378 -5.4401,5.13913 -0.83694,0.80722 -1.67221,1.78351 -2.57955,1.66665 -1.18299,-0.18726 -1.60112,-1.67957 -1.54002,-2.76714 0.12351,-1.21128 0.43851,-2.4435 0.80793,-3.7474 0.37649,-0.92391 0.71158,-2.09392 1.19241,-3.27175 0.66484,-1.52205 1.38425,-3.1051 2.19333,-4.58412 0.66817,-1.33488 1.46242,-2.48525 2.25042,-3.52402 0.88542,-1.17927 1.86167,-2.07003 2.85,-2.70053 0.82642,-0.64761 1.77692,-1.28789 2.83057,-1.73948 0.43965,-0.26632 2.13878,-0.5751 2.6912,-0.62068 0,0 0,0 0,0"
     id="path4444"
     style="fill:#ffffff;fill-opacity:1;stroke:none" />
</svg>
