<?xml version="1.0" encoding="UTF-8" standalone="no"?>
<!-- Created with Inkscape (http://www.inkscape.org/) -->

<svg
   xmlns:dc="http://purl.org/dc/elements/1.1/"
   xmlns:cc="http://creativecommons.org/ns#"
   xmlns:rdf="http://www.w3.org/1999/02/22-rdf-syntax-ns#"
   xmlns:svg="http://www.w3.org/2000/svg"
   xmlns="http://www.w3.org/2000/svg"
   xmlns:xlink="http://www.w3.org/1999/xlink"
   version="1.1"
   width="204"
   height="204"
   id="svg3348">
  <defs
     id="defs3350">
    <linearGradient
       id="linearGradient3412">
      <stop
         id="stop3414"
         style="stop-color:#12a003;stop-opacity:1"
         offset="0" />
      <stop
         id="stop3416"
         style="stop-color:#b7ffb0;stop-opacity:1"
         offset="1" />
    </linearGradient>
    <linearGradient
       x1="724.27936"
       y1="357.36218"
       x2="498.00519"
       y2="159.1348"
       id="linearGradient4446"
       xlink:href="#linearGradient3412"
       gradientUnits="userSpaceOnUse"
       gradientTransform="translate(-511.67113,-156.25739)" />
  </defs>
  <metadata
     id="metadata3353">
    <rdf:RDF>
      <cc:Work
         rdf:about="">
        <dc:format>image/svg+xml</dc:format>
        <dc:type
           rdf:resource="http://purl.org/dc/dcmitype/StillImage" />
        <dc:title></dc:title>
      </cc:Work>
    </rdf:RDF>
  </metadata>
  <path
     d="m 101.99061,2.876444 c 54.7393,0 99.1142,44.37492 99.1142,99.114166 0,54.73924 -44.3749,99.11417 -99.1142,99.11417 -54.739198,0 -99.1140979,-44.37493 -99.1140979,-99.11417 0,-54.739246 44.3748999,-99.114166 99.1140979,-99.114166 z"
     id="path2987"
     style="fill:url(#linearGradient4446);fill-opacity:1;stroke:#717171;stroke-width:1.77165353;stroke-miterlimit:4;stroke-opacity:1" />
  <path
     d="m 38.513312,122.71135 c 8.1673,0.68589 13.0254,6.39888 18.3072,15.38222 11.2448,19.12509 39.1796,26.32602 52.326498,26.4014 11.3532,0.0651 23.2519,-0.21665 33.7181,-4.74557 10.4458,-4.5201 15.8316,-16.20443 19.3893,-28.9057 5.7249,-4.7114 13.1121,7.04912 8.4964,13.52554 -7.2427,12.37754 -15.5879,21.01902 -27.3554,25.42046 -10.9355,4.09021 -21.8129,8.09903 -36.1985,6.57067 -20.246198,-2.15101 -40.230198,-9.69858 -56.446398,-24.05572 -5.8017,-5.13649 -11.519,-7.59481 -16.5663,-14.22139 -2.6208,-5.28345 -0.7093,-14.1115 4.3291,-15.37191 z"
     id="rect2991-1"
     style="fill:#ffffff;fill-opacity:1;stroke:none" />
  <path
     d="m 62.014712,57.913364 c 1.6366,-0.2669 1.9644,-0.072 3.503,0.15215 0.9871,-0.0742 1.8413,0.66531 2.6261,1.32579 1.0479,0.74201 2.0822,1.53403 2.9775,2.55946 0.7375,0.89797 1.659,1.48026 2.4105,2.35037 1.2785,1.35469 2.5393,2.73927 3.6941,4.26643 0.6346,0.8056 1.4518,1.65428 1.4298,2.90395 0.023,1.37262 -1.3577,1.81569 -2.176,1.29212 -1.3955,-1.04401 -2.791,-2.08801 -4.1865,-3.132 -1.0374,-0.52608 -1.6276,-0.92262 -2.7458,-1.45771 -1.1672,-0.60539 -2.1943,-0.54522 -3.1096,-1.07354 -1.2827,-0.34445 -2.0711,-0.88123 -3.2875,-0.79793 -1.0358,0.15823 -1.4529,-0.0626 -2.4838,0.13533 -1.4379,0.27611 -2.4821,0.63196 -3.7658,1.35634 -1.1331,0.5952 -2.1288,1.51716 -3.3104,2.49845 -2.1117,1.7536 -3.4924,3.88054 -5.0727,6.16695 -0.6074,0.96867 -1.3451,2.14022 -2.4339,1.99999 -1.0365,-0.22471 -1.1925,-1.86128 -0.8692,-2.91639 0.3982,-1.20355 0.9304,-2.33646 1.3737,-3.51804 0.4518,-1.10869 0.8539,-2.24809 1.4309,-3.26455 0.7978,-1.42952 1.6611,-2.79994 2.632,-4.04551 0.8018,-1.07262 1.7549,-1.92381 2.7005,-2.77341 1.0625,-1.01819 2.234,-1.82247 3.42,-2.57907 0.9917,-0.39404 1.9781,-0.81662 2.9925,-1.10855 0.2776,-0.0696 1.9708,-0.28593 2.2506,-0.34063 z"
     id="path3444"
     style="fill:#ffffff;fill-opacity:1;stroke:none" />
  <path
     d="m 139.88901,57.929314 c 1.0144,0.29193 2.0008,0.71451 2.9925,1.10855 1.186,0.7566 2.3575,1.56088 3.42,2.57907 0.9456,0.8496 1.8987,1.70079 2.7006,2.77341 0.9708,1.24557 1.8341,2.61599 2.6319,4.04551 0.577,1.01646 0.9791,2.15586 1.4309,3.26455 0.4434,1.18158 0.9755,2.31449 1.3737,3.51804 0.3234,1.05511 0.1673,2.69168 -0.8692,2.91639 -1.0888,0.14023 -1.8265,-1.03132 -2.4339,-1.99999 -1.5803,-2.28641 -2.961,-4.41335 -5.0727,-6.16695 -1.1816,-0.98129 -2.1772,-1.90325 -3.3104,-2.49845 -1.2837,-0.72438 -2.3279,-1.08023 -3.7657,-1.35634 -1.031,-0.19797 -1.4481,0.0229 -2.4838,-0.13533 -1.2165,-0.0833 -2.0049,0.45348 -3.2876,0.79793 -0.9153,0.52832 -1.9424,0.46815 -3.1096,1.07354 -1.1182,0.53509 -1.7084,0.93163 -2.7458,1.45771 -1.3955,1.04399 -2.791,2.08799 -4.1865,3.132 -0.8183,0.52357 -2.1988,0.0805 -2.176,-1.29212 -0.022,-1.24967 0.7952,-2.09835 1.4298,-2.90395 1.1548,-1.52716 2.4156,-2.91174 3.6942,-4.26643 0.7514,-0.87011 1.6729,-1.4524 2.4104,-2.35037 0.8954,-1.02543 1.9296,-1.81745 2.9775,-2.55946 0.7848,-0.66048 1.639,-1.39998 2.6262,-1.32579 1.6398,0.20645 3.2847,-0.2924 4.9213,-0.0255 0.2798,0.0547 0.5546,0.14435 0.8322,0.21398 z"
     id="path3444-3"
     style="fill:#ffffff;fill-opacity:1;stroke:none" />
</svg>
