<?xml version="1.0" encoding="UTF-8" standalone="no"?>
<!-- Created with Inkscape (http://www.inkscape.org/) -->

<svg
   xmlns:dc="http://purl.org/dc/elements/1.1/"
   xmlns:cc="http://creativecommons.org/ns#"
   xmlns:rdf="http://www.w3.org/1999/02/22-rdf-syntax-ns#"
   xmlns:svg="http://www.w3.org/2000/svg"
   xmlns="http://www.w3.org/2000/svg"
   xmlns:xlink="http://www.w3.org/1999/xlink"
   xmlns:sodipodi="http://sodipodi.sourceforge.net/DTD/sodipodi-0.dtd"
   xmlns:inkscape="http://www.inkscape.org/namespaces/inkscape"
   version="1.1"
   width="204"
   height="204"
   id="svg3348">
  <defs
     id="defs3350">
    <linearGradient
       id="linearGradient5310">
      <stop
         id="stop5312"
         offset="0"
         style="stop-color:#876726;stop-opacity:1;" />
      <stop
         id="stop5314"
         offset="1"
         style="stop-color:#f6ef44;stop-opacity:1;" />
    </linearGradient>
    <linearGradient
       gradientTransform="translate(-346.27054,-156.23923)"
       y2="159.1348"
       x2="348.24045"
       y1="357.36218"
       x1="541.27435"
       gradientUnits="userSpaceOnUse"
       id="linearGradient4274"
       xlink:href="#linearGradient5310"
       inkscape:collect="always" />
  </defs>
  <metadata
     id="metadata3353">
    <rdf:RDF>
      <cc:Work
         rdf:about="">
        <dc:format>image/svg+xml</dc:format>
        <dc:type
           rdf:resource="http://purl.org/dc/dcmitype/StillImage" />
        <dc:title></dc:title>
      </cc:Work>
    </rdf:RDF>
  </metadata>
  <path
     inkscape:connector-curvature="0"
     style="fill:url(#linearGradient4274);fill-opacity:1;stroke:#717171;stroke-width:1.77165353;stroke-miterlimit:4;stroke-opacity:1"
     d="m 104.75917,2.89524 c 37.93905,-1.8e-4 18.44763,3.69791 66.21836,9.67598 17.32147,5.97862 30.15091,23.36975 30.15091,43.83572 0,9.12321 -3.69791,108.58639 -9.67662,114.5651 -2.98936,14.33211 -15.68045,25.8828 -30.97582,27.55462 -3.95262,1.67181 -99.50197,2.59629 -104.06358,2.59629 -20.46595,0 -37.85699,-12.82944 -43.8357,-30.15091 C 6.59801,164.99333 2.9001,65.53015 2.9001,56.40694 c 0,-18.61197 14.07038,-37.85637 30.14212,-43.83508 35.21314,-5.97871 60.73974,-9.67662 71.71695,-9.67662 0,0 0,0 0,0"
     id="path3933" />
  <path
     inkscape:connector-curvature="0"
     id="path4079"
     d="m 42.04562,152.61085 c 2.72243,0.22863 9.19299,2.13296 18.23038,5.1274 11.02505,6.37503 30.03903,8.77534 44.12372,8.80047 8.63559,0.0217 17.45302,-0.0722 25.48974,-1.58186 8.02993,-1.5067 14.06998,-5.40147 18.89428,-9.63523 9.18508,-1.57047 16.49867,2.34971 14.96011,4.50851 -2.41424,4.12585 -5.19597,16.05396 -9.11847,17.52111 -3.64517,1.3634 -12.12216,2.69968 -24.19414,2.19022 -14.02552,-0.717 -30.38925,-3.23286 -45.49703,-8.01857 -11.63628,-1.71216 -23.24443,-2.5316 -32.20365,-4.74046 -8.15038,-1.76115 -12.36441,-4.70384 -10.68494,-5.12397 0,0 0,-9.04762 0,-9.04762"
     style="fill:#ffffff;fill-opacity:1;stroke:none" />
  <path
     id="path4271"
     d="m 133.61901,51.16414 c 0.33814,0.0973 1.54901,0.23817 3.20269,0.36952 1.71845,0.2522 3.8731,0.52029 5.99142,0.85969 2.07935,0.2832 4.1612,0.56693 5.75162,0.92447 1.64671,0.41519 2.81655,0.872 3.08249,1.3485 1.46932,0.33882 2.75586,1.23264 3.73973,2.43548 0.98107,1.22712 1.67246,2.75728 1.80519,4.43545 0.1078,0.3517 0.0558,1.7793 -0.28973,3.17732 -0.36293,1.36985 -0.60883,2.74349 -0.8113,4.18475 -0.52677,1.00201 -0.987,2.05719 -1.6909,2.79577 -0.39387,0.99601 -0.72573,1.57077 -1.10347,1.37237 -0.4279,1.03553 -1.28999,2.06942 -2.60252,2.81066 -1.17694,0.76727 -2.46848,1.35492 -4.0907,1.30218 -0.4055,-0.0278 -1.55038,0.15116 -3.30106,0.26597 -1.62821,0.17611 -3.73473,0.15605 -5.88795,0.35785 -2.13688,0.17836 -4.09777,0.31054 -5.76668,0.4859 -1.78828,0.348 -3.13553,0.696 -3.60069,1.044 -1.54976,0.17453 -3.16244,-0.48719 -3.98811,-1.77799 -0.8406,-1.24983 -1.08222,-2.68524 -0.87069,-4.23076 0.38494,-0.50905 0.8052,-1.85265 1.2314,-3.62733 0.25047,-1.61315 0.55764,-3.5714 0.80347,-5.63487 0.29847,-2.10597 0.6432,-4.13412 0.9925,-5.70457 0.2616,-1.54328 0.54633,-2.67185 0.8754,-2.64712 0.5466,-1.20817 1.60892,-2.52697 2.98772,-3.27127 0.92654,-0.81504 2.17065,-1.29918 3.54017,-1.27597 0,0 0,0 0,0"
     style="fill:#ffffff;fill-opacity:1;stroke:none"
     inkscape:connector-curvature="0" />
  <path
     inkscape:connector-curvature="0"
     style="fill:#ffffff;fill-opacity:1;stroke:none"
     d="m 55.60377,51.27727 c 0.54554,-0.089 1.53688,-0.024 3.37286,0.0507 1.65215,-0.0247 3.70103,0.22177 5.72679,0.44193 2.11345,0.24734 4.22237,0.51134 5.84391,0.85315 1.56895,0.29933 2.75819,0.49342 3.00869,0.78346 1.70316,0.45156 3.27594,1.42711 4.49414,2.76943 1.0448,1.1018 1.83122,2.53721 1.82389,4.23076 0.008,0.45754 -0.45257,1.4873 -0.72533,2.63589 -0.46517,0.97511 -0.93034,2.39126 -1.3955,3.80742 -0.3458,1.58879 -0.54254,3.22076 -0.91527,4.36551 -0.38907,1.12132 -0.73143,2.02345 -1.03653,1.84735 -0.42757,1.16217 -1.20439,2.13575 -2.44313,2.99679 -1.17853,0.88601 -2.47008,1.32642 -4.0907,1.3924 -0.4793,0.092 -1.70944,0.21065 -3.46046,0.45211 -1.70081,0.1984 -3.79686,0.50572 -5.95488,0.83282 -2.46805,0.58453 -4.69244,1.29351 -6.54232,2.05565 -1.52558,0.32289 -2.65356,0.71341 -3.01649,0.66666 -1.62248,-0.0749 -2.827,-1.13445 -3.5525,-2.31942 -0.70054,-1.23445 -1.03716,-2.7646 -0.88939,-4.43545 0.1506,-0.36956 0.28463,-1.63144 0.47697,-3.29337 0.26593,-1.79962 0.5537,-4.02058 0.87733,-6.19992 0.26727,-2.12169 0.58497,-4.16957 0.90017,-5.77589 0.35416,-1.66251 0.74466,-2.81268 1.14,-3.06488 0.33056,-1.40833 1.17338,-2.70171 2.34479,-3.63228 0.9258,-0.85647 2.64271,-1.4426 4.01296,-1.46084 0,0 0,0 0,0"
     id="path4438" />
</svg>
